/* XPM */
static char * State3_xpm[] = {
"31 31 2 1",
" 	c #000000",
".	c #FFFFFF",
"   .........................   ",
"    ........................   ",
".   ........................   ",
"..   ......................   .",
"..   ......................   .",
"...   .....................   .",
"...   .....................   .",
"...   ....................   ..",
"...   ....................   ..",
"....   ...................   ..",
"....   ...................   ..",
"....   ...................   ..",
"....   ...................   ..",
"....   ...................   ..",
"....   ...................   ..",
"....   ...................   ..",
"....   ...................   ..",
"....   ...................   ..",
"....   ...................   ..",
"....   ...................   ..",
"....   ...................   ..",
"....   ...................   ..",
"...   ....................   ..",
"...   ....................   ..",
"...   .....................   .",
"...   .....................   .",
"..   ......................   .",
"..   ......................   .",
".   ........................   ",
"    ........................   ",
"   .........................   "};
