/* XPM */
static char * Untitled_xpm[] = {
"31 31 3 1",
" 	c #000000",
".	c #FFFFFF",
"+	c #151515",
"............................   ",
"...........................    ",
"..........................     ",
".........................     .",
"........................     ..",
".......................     ...",
"......................     ....",
".....................     .....",
"....................     ......",
"...................     .......",
"..................     ........",
".................     .........",
"................     ..........",
"...............     ...........",
"..............     ............",
".............     .............",
"............     ..............",
"...........     ...............",
"..........     ................",
".........     .................",
"........     ..................",
".......     ...................",
"......     ....................",
".....     .....................",
"....     ......................",
"...     .......................",
"..     ........................",
".     .........................",
"     ..........................",
"    ...........................",
"   ............................"};
